<svg width="100" height="100" viewBox="0 0 100 100" xmlns="http://www.w3.org/2000/svg">
  <!-- Hexagonal Background -->
  <polygon points="50,5 95,30 95,70 50,95 5,70 5,30" fill="url(#grad1)" stroke="#6366f1" stroke-width="2"/>
  
  <!-- Calculator Buttons -->
  <rect x="30" y="45" width="10" height="10" rx="2" fill="white" opacity="0.9"/>
  <rect x="45" y="45" width="10" height="10" rx="2" fill="white" opacity="0.9"/>
  <rect x="60" y="45" width="10" height="10" rx="2" fill="white" opacity="0.9"/>
  <rect x="30" y="60" width="10" height="10" rx="2" fill="white" opacity="0.9"/>
  <rect x="45" y="60" width="10" height="10" rx="2" fill="white" opacity="0.9"/>
  <rect x="60" y="60" width="10" height="10" rx="2" fill="white" opacity="0.9"/>
  
  <!-- Calculator Display -->
  <rect x="30" y="25" width="40" height="15" rx="2" fill="white" opacity="0.9"/>
  
  <!-- JULDD Text -->
  <text x="50" y="35" font-family="Arial, sans-serif" font-size="10" font-weight="bold" text-anchor="middle" fill="#6366f1">JULDD</text>
  
  <!-- Lightning Bolt -->
  <path d="M55,70 L60,55 L52,55 L58,40" stroke="#ec4899" stroke-width="3" fill="none" stroke-linecap="round" stroke-linejoin="round"/>
  
  <!-- Gradient Definition -->
  <defs>
    <linearGradient id="grad1" x1="0%" y1="0%" x2="100%" y2="100%">
      <stop offset="0%" style="stop-color:#6366f1;stop-opacity:0.8" />
      <stop offset="100%" style="stop-color:#ec4899;stop-opacity:0.8" />
    </linearGradient>
  </defs>
</svg>